# xmcd
#
# Track frame offsets:
#	150
#	21827
#	76890
#	104380
#	143492
#	163827
#	213265
#	237357
#	256327
#	279807
#
# Disc length: 4170 seconds
#
# Revision: 1
# Processed by: cddbd v1.5.2PL0 Copyright (c) Steve Scherf et al.
# Submitted via: audiograbber 1.81.02
#
DISCID=7c10480a
DTITLE=SunnyLand Bluesband - Live`98
DYEAR=1998
DGENRE=Blues-Rock
TTITLE0=Can't Fight What You Can't See
TTITLE1=A Time To Think Again
TTITLE2=Your Good Thing (It's about to end)
TTITLE3=Hey Joe
TTITLE4=Walking Blues
TTITLE5=Red House
TTITLE6=Houserocker
TTITLE7=Cry Baby
TTITLE8=Run For Cover
TTITLE9=Carry Me
EXTD=
EXTT0=
EXTT1=
EXTT2=
EXTT3=
EXTT4=
EXTT5=
EXTT6=
EXTT7=
EXTT8=
EXTT9=
PLAYORDER=
